<svg width="1440" height="211" viewBox="0 0 1440 211" fill="none" xmlns="http://www.w3.org/2000/svg">
<g clip-path="url(#clip0)">
<mask id="mask0" mask-type="alpha" maskUnits="userSpaceOnUse" x="0" y="0" width="1440" height="212">
<rect x="1440" y="211" width="1440" height="211" transform="rotate(-180 1440 211)" fill="#F8EBC1"/>
</mask>
<g mask="url(#mask0)">
<path fill-rule="evenodd" clip-rule="evenodd" d="M-160 293.876C33.5394 172.529 369.143 68.6123 757.766 23.2462C862.246 11.0497 963.972 3.85396 1061.08 1.28012C918.169 -2.68626 761.344 4.15094 597.766 23.2462C301.065 57.8818 35.267 126.646 -160 211.239L-160 293.876Z" fill="#ECD077"/>
</g>
<mask id="mask1" mask-type="alpha" maskUnits="userSpaceOnUse" x="0" y="0" width="1440" height="212">
<rect x="1440" y="211" width="1440" height="211" transform="rotate(-180 1440 211)" fill="#F8EBC1"/>
</mask>
<g mask="url(#mask1)">
<path fill-rule="evenodd" clip-rule="evenodd" d="M5.59208e-05 150.735C-311.898 253.887 -510.671 395.195 -495.174 527.951C-471.187 733.428 57.0283 840.608 684.629 767.345C932.188 738.446 1158.23 685.788 1339.74 620L1440 620L1440 580.388C1659.21 485.844 1790.26 371.374 1777.57 262.641C1766.07 164.131 1638.68 88.2144 1440 43.942L1440 0.000123003L6.90985e-05 -2.886e-06L5.59208e-05 150.735ZM5.59208e-05 150.735L1.48964e-05 620L1339.74 620C1374.89 607.263 1408.36 594.033 1440 580.388L1440 43.942C1224.27 -4.13143 924.483 -14.8931 597.766 23.2463C375.649 49.1752 170.852 94.2306 5.59208e-05 150.735Z" fill="white"/>
</g>
</g>
<defs>
<clipPath id="clip0">
<rect width="1440" height="211" fill="white"/>
</clipPath>
</defs>
</svg>
