<svg width="32" height="32" viewBox="0 0 32 32" fill="none" xmlns="http://www.w3.org/2000/svg">
<g clip-path="url(#clip0)">
<path d="M16.0053 7.78394C11.468 7.78394 7.79468 11.4613 7.79468 15.9946C7.79468 20.5319 11.472 24.2053 16.0053 24.2053C20.5427 24.2053 24.216 20.5279 24.216 15.9946C24.216 11.4573 20.5387 7.78394 16.0053 7.78394ZM16.0053 21.3239C13.06 21.3239 10.676 18.9386 10.676 15.9946C10.676 13.0506 13.0613 10.6653 16.0053 10.6653C18.9493 10.6653 21.3347 13.0506 21.3347 15.9946C21.336 18.9386 18.9507 21.3239 16.0053 21.3239Z" fill="#239A8B"/>
<path d="M22.5971 0.101736C19.6531 -0.0355971 12.3611 -0.0289304 9.41448 0.101736C6.82515 0.22307 4.54115 0.848403 2.69981 2.68974C-0.377519 5.76707 0.0158147 9.91374 0.0158147 15.9951C0.0158147 22.2191 -0.330852 26.2697 2.69981 29.3004C5.78915 32.3884 9.99581 31.9844 16.0051 31.9844C22.1705 31.9844 24.2985 31.9884 26.4785 31.1444C29.4425 29.9937 31.6798 27.3444 31.8985 22.5857C32.0371 19.6404 32.0291 12.3497 31.8985 9.40307C31.6345 3.78574 28.6198 0.37907 22.5971 0.101736ZM27.2571 27.2644C25.2398 29.2817 22.4411 29.1017 15.9665 29.1017C9.29982 29.1017 6.62648 29.2004 4.67581 27.2444C2.42915 25.0084 2.83581 21.4177 2.83581 15.9737C2.83581 8.60707 2.07981 3.30174 9.47315 2.92307C11.1718 2.86307 11.6718 2.84307 15.9478 2.84307L16.0078 2.88307C23.1131 2.88307 28.6878 2.13907 29.0225 9.53107C29.0985 11.2177 29.1158 11.7244 29.1158 15.9937C29.1145 22.5831 29.2398 25.2724 27.2571 27.2644Z" fill="#239A8B"/>
<path d="M24.5414 9.37859C25.601 9.37859 26.46 8.51957 26.46 7.45992C26.46 6.40027 25.601 5.54126 24.5414 5.54126C23.4817 5.54126 22.6227 6.40027 22.6227 7.45992C22.6227 8.51957 23.4817 9.37859 24.5414 9.37859Z" fill="#239A8B"/>
</g>
<defs>
<clipPath id="clip0">
<rect width="32" height="32" fill="white"/>
</clipPath>
</defs>
</svg>
